<?xml version="1.0" encoding="UTF-8"?>
<!-- Created with Inkscape (http://www.inkscape.org/) -->
<svg id="svg7384" width="16" height="16" version="1.1" xmlns="http://www.w3.org/2000/svg" xmlns:cc="http://creativecommons.org/ns#" xmlns:dc="http://purl.org/dc/elements/1.1/" xmlns:osb="http://www.openswatchbook.org/uri/2009/osb" xmlns:rdf="http://www.w3.org/1999/02/22-rdf-syntax-ns#">
 <metadata id="metadata90">
  <rdf:RDF>
   <cc:Work rdf:about="">
    <dc:format>image/svg+xml</dc:format>
    <dc:type rdf:resource="http://purl.org/dc/dcmitype/StillImage"/>
    <dc:title>Gnome Symbolic Icon Theme</dc:title>
   </cc:Work>
  </rdf:RDF>
 </metadata>
 <title id="title9167">Gnome Symbolic Icon Theme</title>
 <g id="layer9" transform="translate(-403.03 185)">
  <path id="rect5523" d="m405-185v2 12c0 2-1 2-1 2h1s1 0 1-1h1c0 1-1 1-1 1h1s1 0 1-1h6c0 1-0.67515 1-1 1h1s1 0 1-1h1c0 1-1 1-1 1h1s1 0 1-2v-12-2h-3v2 2h-6v-2-2zm1 1h1v1h-1zm9 0h1v1h-1zm-9 2h1v1h-1zm9 0h1v1h-1zm-9 2h1v1h-1zm2 0h6v4h-6zm7 0h1v1h-1zm-9 2h1v1h-1zm9 0h1v1h-1zm-9 2h1v1h-1zm9 0h1v1h-1zm-7 1h6v4h-6zm-2 1h1v1h-1zm9 0h1v1h-1zm-9 2h1v1h-1zm9 0h1v1h-1z" style="color:#000000;enable-background:new;fill:#bebebe"/>
 </g>
</svg>
